<?xml version="1.0" encoding="utf-8"?>
<!-- Generator: Adobe Illustrator 22.0.1, SVG Export Plug-In . SVG Version: 6.00 Build 0)  -->
<svg version="1.1" id="Layer_1" xmlns="http://www.w3.org/2000/svg" xmlns:xlink="http://www.w3.org/1999/xlink" x="0px" y="0px"
	 viewBox="0 0 100 100" style="enable-background:new 0 0 100 100;" xml:space="preserve">
<style type="text/css">
	.st0{fill:#FCC0CE;stroke:#FDE9D8;stroke-width:0.25;stroke-miterlimit:10;}
	.st1{fill:#FFFFFF;}
	.st2{fill:#FDCDD8;stroke:#FDE9D8;stroke-width:0.25;stroke-miterlimit:10;}
	.st3{fill:none;}
	.st4{opacity:0.75;fill:#FFFFFF;}
	.st5{font-family:'MyriadPro-Regular';}
	.st6{font-size:18px;}
</style>
<g id="leftBrain">
</g>
<g id="rightBrain">
</g>
<g id="letters">
	<g>
		<path class="st0" d="M50,22c-1.7,0.2-3.1,1.2-3.9,2.6c-0.8-0.4-1.7-0.6-2.6-0.6c-3,0-5.5,2.3-6.5,5.4c-0.8-0.4-1.6-0.6-2.5-0.6
			c-3.3,0-6,3.2-6,7.2c0,0.9,0.1,1.8,0.4,2.6c-0.8,1.3-1.3,2.9-1.4,4.6c-1.8,1.4-3,3.8-3,6.6c0,1.5,0.3,2.9,0.9,4
			c-0.6,1.3-0.9,2.8-0.9,4.4c0,3.6,1.7,6.6,4.2,8.1c0.4,1.9,1.4,3.5,2.8,4.5c0,0.2,0,0.4,0,0.6C31.5,75,34,78,37,78
			c1.2,0,2.3-0.5,3.2-1.2C41,77.5,41.9,78,43,78c1.6,0,3-1,3.8-2.5c1.3-0.2,2.4-0.9,3.2-2V22z"/>
		<path class="st1" d="M44.6,32.1l-0.1-0.2c2.5-1.6,3.8-3.1,3.6-4.5c-0.2-2-3.1-3.2-3.1-3.2l0.1-0.2c0.1,0.1,3.1,1.2,3.3,3.4
			C48.4,28.8,47.2,30.5,44.6,32.1z"/>
		<path class="st1" d="M36.6,38.1l-0.2-0.2c1.8-2.1,2.5-4.1,2.3-5.9c-0.3-1.9-1.7-2.9-1.8-2.9l0.1-0.2c0.1,0,1.6,1.1,1.9,3.1
			C39.2,33.8,38.4,35.9,36.6,38.1z"/>
		<path class="st1" d="M34.6,50.1l-0.2-0.1c1.1-1.6,1.5-3.2,1-4.8c-1.2-4.2-7.4-7-7.5-7l0.1-0.2c0.3,0.1,6.4,2.8,7.6,7.2
			C36.2,46.7,35.8,48.4,34.6,50.1z"/>
		<path class="st1" d="M25,54.1v-0.3c0.1,0,5.9-0.1,6.9-5.9l0.2,0C31.1,54,25.1,54.1,25,54.1z"/>
		<path class="st1" d="M28,67.1L28,66.9c0,0,4.9-2.1,3.9-9.9l0.2,0C33.1,65,28.1,67.1,28,67.1z"/>
		<path class="st1" d="M47.1,76l-0.2-0.1c0,0,2.1-3.7,1-5.6c-0.5-0.8-1.4-1.2-2.8-1.2v-0.3c1.5,0,2.6,0.4,3.1,1.3
			C49.3,72.2,47.2,75.9,47.1,76z"/>
		<path class="st1" d="M31.1,72l-0.2-0.1c0.2-0.4,4.9-8.5,9-8.5c0,0,0.1,0,0.1,0c1.3,0,2.3,0.9,3.2,2.5L42.9,66
			c-0.8-1.6-1.8-2.4-2.9-2.4c0,0-0.1,0-0.1,0C36,63.6,31.2,72,31.1,72z"/>
		<path class="st2" d="M50,22c1.7,0.2,3.1,1.2,3.9,2.6c0.8-0.4,1.7-0.6,2.6-0.6c3,0,5.5,2.3,6.5,5.4c0.8-0.4,1.6-0.6,2.5-0.6
			c3.3,0,6,3.2,6,7.2c0,0.9-0.1,1.8-0.4,2.6c0.8,1.3,1.3,2.9,1.4,4.6c1.8,1.4,3,3.8,3,6.6c0,1.5-0.3,2.9-0.9,4
			c0.6,1.3,0.9,2.8,0.9,4.4c0,3.6-1.7,6.6-4.2,8.1c-0.4,1.9-1.4,3.5-2.8,4.5c0,0.2,0,0.4,0,0.6C68.5,75,66,78,63,78
			c-1.2,0-2.3-0.5-3.2-1.2C59,77.5,58.1,78,57,78c-1.6,0-3-1-3.8-2.5c-1.3-0.2-2.4-0.9-3.2-2V22z"/>
		<path class="st1" d="M55.4,32.1c-2.6-1.6-3.9-3.2-3.7-4.8c0.2-2.2,3.1-3.4,3.3-3.4l0.1,0.2c0,0-2.9,1.2-3.1,3.2
			c-0.1,1.4,1.1,3,3.6,4.5L55.4,32.1z"/>
		<path class="st1" d="M63.4,38.1c-1.8-2.2-2.6-4.2-2.3-6.1c0.3-2.1,1.8-3.1,1.9-3.1l0.1,0.2c0,0-1.5,1-1.8,3
			c-0.3,1.8,0.5,3.7,2.3,5.9L63.4,38.1z"/>
		<path class="st1" d="M65.4,50.1c-1.2-1.7-1.6-3.4-1.1-5c1.2-4.3,7.4-7,7.6-7.2l0.1,0.2c-0.1,0-6.3,2.8-7.5,7
			c-0.4,1.6-0.1,3.2,1,4.8L65.4,50.1z"/>
		<path class="st1" d="M75,54.1c-0.1,0-6.1-0.1-7.1-6.1l0.2,0c1,5.8,6.8,5.9,6.9,5.9V54.1z"/>
		<path class="st1" d="M72,67.1c-0.1,0-5.1-2.1-4.1-10.1l0.2,0c-1,7.8,3.9,9.8,3.9,9.9L72,67.1z"/>
		<path class="st1" d="M52.9,76c-0.1-0.2-2.1-3.8-1-5.9c0.5-0.9,1.5-1.3,3.1-1.3v0.3c-1.4,0-2.4,0.4-2.8,1.2c-1.1,1.9,0.9,5.6,1,5.6
			L52.9,76z"/>
		<path class="st1" d="M68.9,72c0-0.1-4.8-8.4-8.8-8.4c0,0-0.1,0-0.1,0c-1.2,0-2.2,0.8-2.9,2.4l-0.2-0.1c0.8-1.6,1.9-2.5,3.2-2.5
			c0,0,0.1,0,0.1,0c4.1,0,8.8,8.2,9,8.5L68.9,72z"/>
		<rect x="36.3" y="42.2" class="st3" width="10.7" height="13.8"/>
		<text transform="matrix(1 0 0 1 36.3335 55.0127)" class="st4 st5 st6">C</text>
		<rect x="52.3" y="42.2" class="st3" width="10.7" height="13.8"/>
		<text transform="matrix(1 0 0 1 52.3335 55.0127)" class="st4 st5 st6">K</text>
	</g>
</g>
</svg>
